<?xml version="1.0" encoding="utf-8"?>
<!-- Generator: Adobe Illustrator 16.0.4, SVG Export Plug-In . SVG Version: 6.00 Build 0)  -->
<!DOCTYPE svg PUBLIC "-//W3C//DTD SVG 1.1//EN" "http://www.w3.org/Graphics/SVG/1.1/DTD/svg11.dtd">
<svg version="1.1" id="Layer_1" xmlns="http://www.w3.org/2000/svg" xmlns:xlink="http://www.w3.org/1999/xlink" x="0px" y="0px"
	 width="395px" height="50px" viewBox="0 0 395 50" enable-background="new 0 0 395 50" xml:space="preserve">
<g>
	<g>
		<g>
			<path fill="#EEEACB" d="M6.684,16.035c0.076,2.66-0.038,6.422-0.342,11.286c-0.305,5.283-0.456,9.045-0.456,11.287
				c0,1.559,0.038,3.021,0.114,4.389c0.075,0.949-0.267,1.426-1.026,1.426c-2.318,0-3.591-0.514-3.818-1.539
				c-0.494-2.203-0.741-4.693-0.741-7.467c0-1.939,0.171-4.875,0.513-8.807c0.342-3.934,0.514-6.85,0.514-8.75
				c0-2.432-0.191-4.637-0.57-6.611c-0.038-0.266,0.065-0.57,0.313-0.912C1.43,9.992,1.705,9.765,2.01,9.65
				c1.558-0.531,2.708-0.266,3.448,0.799C6.199,11.513,6.607,13.375,6.684,16.035z"/>
			<path fill="#EEEACB" d="M27.603,23.787c0.114,0.76,0.171,1.52,0.171,2.28c0,4.258-1.463,8.057-4.389,11.4
				c-2.357,2.699-4.675,3.971-6.954,3.82c-1.787-0.115-3.287-0.912-4.503-2.395c-1.71-2.129-2.565-4.902-2.565-8.322
				c0-3.23,0.703-6.67,2.109-10.317c0.912-2.318,1.899-3.914,2.964-4.789c1.596-1.291,3.4-1.938,5.415-1.938
				c1.405,0,2.584,0.398,3.534,1.197c1.177,1.025,2.07,2.07,2.679,3.135c0.531,0.912,0.884,1.881,1.055,2.906
				C27.289,21.792,27.45,22.798,27.603,23.787z M22.871,23.246c-0.228-0.932-0.418-1.854-0.569-2.766
				c-0.267-1.025-0.761-1.766-1.482-2.223c-0.532-0.303-0.932-0.455-1.197-0.455c-0.305,0-0.665,0.209-1.083,0.627
				c-2.888,3.002-4.332,6.784-4.332,11.342c0,2.699,0.646,5.037,1.938,7.012c0.189,0.305,0.418,0.455,0.684,0.455
				c0.343,0,1.007-0.531,1.995-1.596c2.926-3.152,4.39-6.346,4.39-9.576C23.214,25.117,23.1,24.177,22.871,23.246z"/>
			<path fill="#EEEACB" d="M46.014,23.787c0.114,0.76,0.171,1.52,0.171,2.28c0,4.258-1.463,8.057-4.389,11.4
				c-2.357,2.699-4.675,3.971-6.954,3.82c-1.787-0.115-3.287-0.912-4.503-2.395c-1.71-2.129-2.565-4.902-2.565-8.322
				c0-3.23,0.703-6.67,2.109-10.317c0.912-2.318,1.899-3.914,2.964-4.789c1.596-1.291,3.4-1.938,5.415-1.938
				c1.405,0,2.584,0.398,3.534,1.197c1.177,1.025,2.07,2.07,2.679,3.135c0.531,0.912,0.884,1.881,1.055,2.906
				C45.7,21.792,45.861,22.798,46.014,23.787z M41.282,23.246c-0.228-0.932-0.418-1.854-0.569-2.766
				c-0.267-1.025-0.761-1.766-1.482-2.223c-0.532-0.303-0.932-0.455-1.197-0.455c-0.305,0-0.665,0.209-1.083,0.627
				c-2.888,3.002-4.332,6.784-4.332,11.342c0,2.699,0.646,5.037,1.938,7.012c0.189,0.305,0.418,0.455,0.684,0.455
				c0.343,0,1.007-0.531,1.995-1.596c2.926-3.152,4.39-6.346,4.39-9.576C41.625,25.117,41.511,24.177,41.282,23.246z"/>
			<path fill="#EEEACB" d="M90.074,42.369c0.152,0.76-0.398,1.178-1.652,1.254c-0.837,0.037-1.691-0.322-2.565-1.082
				c-0.722-0.648-1.292-1.691-1.71-3.137c-0.38-1.328-0.608-3.209-0.684-5.643c-0.077-2.736-0.21-4.617-0.399-5.643
				c-0.494,1.711-1.311,4.256-2.451,7.639c-0.684,1.861-1.103,2.926-1.254,3.191c-0.608,1.178-1.368,1.709-2.279,1.596
				c-1.824-0.418-3.23-1.443-4.219-3.078c-0.646-1.062-1.254-2.754-1.823-5.072c-0.608-2.545-1.122-4.256-1.539-5.131
				c-1.635,7.943-3.383,13.871-5.244,17.785c-0.267,0.568-1.064,0.531-2.395-0.115c-1.103-0.531-1.652-1.291-1.652-2.279
				c0-0.342,0.398-1.559,1.196-3.648c0.343-0.912,1.672-5.301,3.99-13.166c0.798-2.737,1.634-7.543,2.508-14.422
				c0.076-0.076,0.266-0.475,0.57-1.197c0.189-0.531,0.531-0.797,1.026-0.797c1.291,0,2.185,0.246,2.679,0.74
				c0,1.104,0.18,2.879,0.541,5.33s0.542,4.303,0.542,5.557c0.342,2.129,0.664,4.276,0.969,6.442
				c0.418,2.432,1.178,4.428,2.28,5.984c3.647-10.145,5.965-18.163,6.954-24.053c0.151-0.607,0.722-0.912,1.71-0.912
				c1.405,0,2.203,0.455,2.394,1.367c0.266,1.369,0.399,2.945,0.399,4.73c0,0.57-0.038,1.824-0.114,3.764
				c-0.038,1.559-0.038,2.83,0,3.818C88.193,30.209,88.935,36.936,90.074,42.369z"/>
			<path fill="#EEEACB" d="M99.365,12.558c0.076,1.102,0.114,2.242,0.114,3.42c0,2.584-0.267,6.479-0.798,11.686
				c-0.533,5.205-0.799,9.139-0.799,11.799c0,0.988,0.02,1.955,0.058,2.906c-0.342,1.062-1.083,1.576-2.224,1.539
				c-1.634-0.076-2.527-0.779-2.679-2.109c-0.152-1.33-0.228-2.736-0.228-4.217c0-2.584,0.313-6.441,0.94-11.572
				c0.627-5.129,0.94-8.967,0.94-11.514c0-0.988-0.038-1.957-0.114-2.906c0.38-0.723,1.026-1.084,1.938-1.084
				c0.721,0,1.443,0.209,2.166,0.627c0.151-0.113,0.265-0.17,0.342-0.17c0.114,0,0.171,0.189,0.171,0.568
				c-0.038,0.457-0.038,0.723,0,0.799C99.231,12.443,99.289,12.521,99.365,12.558z"/>
			<path fill="#EEEACB" d="M119.03,34.803c-0.077,0.037-2.3,1.623-6.669,4.752c-2.547,1.834-4.808,3.189-6.783,4.068
				c-0.228,0.113-0.456,0.172-0.684,0.172c-0.533,0-1.026-0.344-1.482-1.029c-0.684-0.912-1.046-1.389-1.083-1.426
				c-0.076-3.35,0.133-8.012,0.627-13.988c0.57-6.356,0.855-10.942,0.855-13.758c0-1.941-0.077-3.768-0.229-5.48
				c0.493-0.494,1.12-0.742,1.881-0.742c1.444,0,2.28,0.533,2.509,1.596c0.113,3.117-0.021,7.781-0.399,13.994
				c-0.38,6.213-0.532,10.877-0.456,13.995c1.063-0.457,2.451-1.256,4.161-2.395c1.861-1.291,3.211-2.146,4.047-2.564
				c0.189,0,0.521-0.039,0.997-0.115s0.827-0.113,1.055-0.113c0.76,0,1.312,0.305,1.653,0.916
				C119.486,33.523,119.486,34.23,119.03,34.803z"/>
			<path fill="#EEEACB" d="M140.233,12.9c-1.406,0.57-3.477,1.234-6.213,1.994c-2.736,0.762-4.808,1.426-6.213,1.996
				c-0.342,0.988-0.59,3.191-0.741,6.611c0.607,0.229,1.312,0.342,2.109,0.342c0.569,0,1.462-0.094,2.679-0.285
				c1.216-0.189,2.109-0.285,2.679-0.285c1.063,0,1.976,0.229,2.736,0.686c0.531,0.76,0.798,1.254,0.798,1.481
				c0,0.268-0.134,0.477-0.398,0.627c-0.077,0.039-0.343,0.305-0.799,0.799c-0.304,0.342-0.684,0.494-1.14,0.455
				c-0.798,0.191-2.261,0.305-4.389,0.344c-1.787,0.037-3.212,0.266-4.275,0.684c-0.722,2.812-1.083,5.035-1.083,6.668
				c0,1.104,0.151,1.977,0.456,2.623c1.786,1.254,4.883,1.785,9.291,1.596c0.304,0,0.627-0.143,0.969-0.428
				c0.343-0.285,0.627-0.428,0.855-0.428c1.063-0.229,1.767,0.57,2.108,2.395c0.114,0.607,0.01,1.168-0.313,1.682
				c-0.323,0.512-0.789,0.787-1.396,0.826c-4.598,0.15-8.588-0.209-11.97-1.084c-1.064-0.266-2.033-0.854-2.907-1.766
				s-1.367-1.939-1.481-3.078c-0.342-3.307-0.342-6.27,0-8.893c-1.064-0.721-1.539-1.424-1.425-2.109
				c0.037-0.342,0.332-0.654,0.883-0.939s0.864-0.581,0.94-0.885c0.076-0.303,0.229-2.107,0.456-5.414
				c-2.128-0.418-3.173-1.217-3.135-2.395c0.037-1.102,0.703-1.975,1.995-2.621c1.216-0.494,2.432-0.988,3.648-1.482
				c1.443-0.721,3.229-1.367,5.357-1.938c1.824-0.494,3.667-0.969,5.529-1.426c0.189-0.037,0.418-0.057,0.684-0.057
				c1.026,0,2.224,0.398,3.591,1.197c0.038,0.152,0.133,0.438,0.285,0.855c0.151,0.418,0.229,0.721,0.229,0.91
				C140.633,12.462,140.499,12.71,140.233,12.9z"/>
			<path fill="#EEEACB" d="M178.993,41.799c0.114,0.152,0.171,0.322,0.171,0.514c0,0.873-0.912,1.539-2.735,1.994
				c-2.015-1.559-4.522-3.951-7.524-7.182c-3.344-3.609-5.834-6.117-7.467-7.523c-0.114,0.988-0.323,3.572-0.627,7.752
				c-0.19,3.154-0.533,5.662-1.026,7.523c-0.076,0-0.313,0.094-0.712,0.285c-0.399,0.189-0.732,0.246-0.998,0.172
				c-1.673-0.381-2.508-1.539-2.508-3.479c0-0.568,0.075-1.328,0.228-2.279c0.151-1.102,0.247-1.785,0.285-2.053
				c0.151-2.203,0.247-4.824,0.285-7.865v-6.213c0-5.168,0.285-9.52,0.855-13.053c0.379-2.355,2.602-3.439,6.669-3.25
				c2.052,0.078,3.837,1.104,5.357,3.078c1.405,1.824,2.109,3.801,2.109,5.928c0,1.787-0.665,3.572-1.995,5.359
				c-1.14,1.596-2.546,2.85-4.218,3.762c-0.685,0.381-1.026,0.797-1.026,1.254c0,0.494,0.399,1.082,1.197,1.768
				c0.607,0.494,1.216,0.988,1.824,1.48c0.037,0.039,2.127,1.939,6.27,5.701C176.029,37.828,177.891,39.938,178.993,41.799z
				 M166.967,16.207c0.113-0.686,0.151-1.293,0.113-1.824c-0.113-0.799-0.447-1.52-0.997-2.166c-0.552-0.646-1.435-0.969-2.65-0.969
				c-0.912,0-1.482,0.283-1.71,0.854c-0.19,0.951-0.285,2.033-0.285,3.25c0,0.494,0.057,1.766,0.171,3.818
				c0.075,1.559,0.075,2.832,0,3.818C164.762,20.632,166.548,18.373,166.967,16.207z"/>
			<path fill="#EEEACB" d="M195.637,12.9c-1.406,0.57-3.477,1.234-6.213,1.994c-2.736,0.762-4.808,1.426-6.213,1.996
				c-0.342,0.988-0.59,3.191-0.741,6.611c0.607,0.229,1.312,0.342,2.109,0.342c0.569,0,1.462-0.094,2.679-0.285
				c1.216-0.189,2.109-0.285,2.679-0.285c1.063,0,1.976,0.229,2.736,0.686c0.531,0.76,0.798,1.254,0.798,1.481
				c0,0.268-0.134,0.477-0.398,0.627c-0.077,0.039-0.343,0.305-0.799,0.799c-0.304,0.342-0.684,0.494-1.14,0.455
				c-0.798,0.191-2.261,0.305-4.389,0.344c-1.787,0.037-3.212,0.266-4.275,0.684c-0.722,2.812-1.083,5.035-1.083,6.668
				c0,1.104,0.151,1.977,0.456,2.623c1.786,1.254,4.883,1.785,9.291,1.596c0.304,0,0.627-0.143,0.969-0.428
				c0.343-0.285,0.627-0.428,0.855-0.428c1.063-0.229,1.767,0.57,2.108,2.395c0.114,0.607,0.01,1.168-0.313,1.682
				c-0.323,0.512-0.789,0.787-1.396,0.826c-4.598,0.15-8.588-0.209-11.97-1.084c-1.064-0.266-2.033-0.854-2.907-1.766
				s-1.367-1.939-1.481-3.078c-0.342-3.307-0.342-6.27,0-8.893c-1.064-0.721-1.539-1.424-1.425-2.109
				c0.037-0.342,0.332-0.654,0.883-0.939s0.864-0.581,0.94-0.885c0.076-0.303,0.229-2.107,0.456-5.414
				c-2.128-0.418-3.173-1.217-3.135-2.395c0.037-1.102,0.703-1.975,1.995-2.621c1.216-0.494,2.432-0.988,3.648-1.482
				c1.443-0.721,3.229-1.367,5.357-1.938c1.824-0.494,3.667-0.969,5.529-1.426c0.189-0.037,0.418-0.057,0.684-0.057
				c1.026,0,2.224,0.398,3.591,1.197c0.038,0.152,0.133,0.438,0.285,0.855c0.151,0.418,0.229,0.721,0.229,0.91
				C196.036,12.462,195.902,12.71,195.637,12.9z"/>
			<path fill="#EEEACB" d="M209.088,6.916c0,0.76-0.551,1.424-1.652,1.994c-0.305,0.152-0.627,0.172-0.969,0.057
				c-0.533-0.15-0.818-0.229-0.855-0.229c-0.229,0-0.456,0.115-0.684,0.344c-2.053,2.051-3.078,4.559-3.078,7.523
				c0,1.102,0.171,2.129,0.513,3.078c0.151,0.418,1.597,3.363,4.332,8.834c1.824,3.648,2.736,6.746,2.736,9.291
				c0,2.092-0.513,4.105-1.539,6.043c-0.343,0.645-1.197,1.482-2.565,2.508c-1.103,0.797-2.09,1.197-2.964,1.197
				c-0.342,0-0.665-0.057-0.969-0.172c-1.14-0.494-1.71-1.121-1.71-1.881c0-0.455,0.285-1.008,0.855-1.652
				c0.15-0.191,0.512-0.305,1.082-0.342c0.57-0.039,0.949-0.268,1.141-0.686c0.798-1.67,1.197-3.381,1.197-5.129
				c0-2.471-1.227-6.051-3.678-10.744c-2.45-4.694-3.676-8.446-3.676-11.258c0-2.318,0.456-4.389,1.368-6.213
				c1.026-2.09,2.488-3.592,4.389-4.504c0.874-0.417,1.729-0.626,2.565-0.626c1.596,0,2.793,0.437,3.591,1.312
				C208.898,6.08,209.088,6.498,209.088,6.916z"/>
			<path fill="#EEEACB" d="M241.407,5.888c-0.343,1.369-0.989,2.166-1.938,2.395c-2.471,0.607-6.764,1.406-12.882,2.395
				c-0.761,9.461-1.14,17.348-1.14,23.655c0,2.395,0.037,4.75,0.113,7.068c0.038,0.721,0,1.271-0.113,1.652
				c-0.191,0.607-0.57,0.893-1.141,0.855c-1.102-0.039-2.014-0.504-2.736-1.396c-0.722-0.893-1.121-1.891-1.196-2.992
				c-0.077-1.406-0.114-2.889-0.114-4.447c0-2.508,0.172-6.477,0.514-11.913c0.342-5.205,0.493-9.178,0.455-11.912
				c-1.025-0.076-2.451,0.02-4.274,0.283c-2.091,0.305-3.534,0.457-4.332,0.457c-1.861,0-3.382-0.498-4.56-1.494
				c-0.457-0.996-0.685-1.514-0.685-1.553c0-0.268,0.134-0.555,0.399-0.861c1.217-0.422,3.705-0.805,7.467-1.15
				c3.306-0.344,5.775-0.957,7.41-1.838c1.33,0.455,2.85,0.684,4.56,0.684s3.344-0.209,4.902-0.627
				c0.456-0.037,1.614-0.305,3.477-0.798c1.368-0.342,2.509-0.456,3.421-0.342c0.684,0,0.969,0.285,0.854,0.855
				C240.895,4.863,241.407,5.205,241.407,5.888z"/>
			<path fill="#EEEACB" d="M253.148,29.088c-2.242,5.055-5.414,8.057-9.519,9.006c-0.494,0.115-0.989,0.172-1.481,0.172
				c-2.166,0-4.352-1.178-6.556-3.535c-1.481-1.596-2.224-3.666-2.224-6.213c0-2.811,0.836-5.833,2.509-9.063
				c0.722-1.367,1.596-2.545,2.622-3.533c1.178-1.178,2.299-1.768,3.363-1.768c0.607,0,1.177,0.229,1.709,0.684
				c0.532,0.457,1.957,1.064,4.275,1.824c1.824,0.607,3.115,1.635,3.876,3.078c1.33,2.547,1.995,4.73,1.995,6.555
				C253.719,27.32,253.528,28.252,253.148,29.088z M248.589,25.555c-0.267-2.774-1.007-4.428-2.224-4.959
				c-0.189-0.076-0.361-0.115-0.512-0.115c-0.457,0-1.027,0.381-1.711,1.141c-0.76,0.875-1.35,1.387-1.767,1.539
				c-0.267,0.113-0.646,0-1.14-0.342c-0.494-0.342-0.818-0.514-0.969-0.514c-0.115,0-0.21,0.039-0.285,0.115
				c-1.331,1.139-1.996,2.907-1.996,5.301c0,1.633,0.38,3.02,1.141,4.16c1.063,1.559,1.957,2.338,2.679,2.338
				c1.672,0,3.286-1.045,4.845-3.135C248.133,29.107,248.778,27.264,248.589,25.555z"/>
			<path fill="#EEEACB" d="M289.514,16.605c-0.494,2.051-1.748,3.914-3.762,5.586c-1.938,1.367-3.875,2.717-5.814,4.047
				c0.115,0.57,0.504,0.998,1.17,1.283c0.664,0.283,1.301,0.561,1.908,0.826c3.154,2.051,4.73,4.484,4.73,7.295
				c0,2.166-0.74,4.162-2.223,5.986c-1.139,1.404-2.83,2.793-5.072,4.16c-1.824,1.064-3.648,2.127-5.473,3.191
				c-0.455,0.266-0.949,0.4-1.481,0.4c-1.254,0-2.128-0.514-2.622-1.539c0.076-3.193,0.151-6.365,0.229-9.52
				c0.075-3.799,0.285-6.934,0.627-9.404c-0.799-0.533-1.197-1.141-1.197-1.824c0-0.342,0.143-0.656,0.428-0.941
				s0.674-0.598,1.168-0.939c0.456-5.778,0.551-11.096,0.285-15.961c-1.787-0.342-2.964-1.141-3.534-2.395
				c-0.038-0.15,0.028-0.379,0.2-0.684c0.17-0.303,0.256-0.551,0.256-0.74c0.874-0.646,1.843-0.969,2.907-0.969
				c0.76,0,2.508,0.247,5.243,0.741c1.406,0.229,2.869,0.74,4.391,1.539c4.104,2.129,6.516,4.199,7.238,6.213
				C289.609,14.402,289.742,15.617,289.514,16.605z M282.445,36.1c0.076-0.418,0.115-0.816,0.115-1.197
				c0-1.141-0.361-2.146-1.084-3.021c-1.938-0.949-3.172-1.424-3.705-1.424c-0.305,0-0.59,0.057-0.854,0.17
				c0.037,0.381,0.057,0.799,0.057,1.254c0,0.799-0.105,2.023-0.314,3.678c-0.209,1.652-0.312,2.896-0.312,3.732
				c0,1.217,0.15,2.318,0.455,3.307c0.457-0.533,1.168-1.094,2.139-1.682c0.969-0.59,1.643-1.111,2.023-1.568
				C281.648,38.551,282.141,37.467,282.445,36.1z M284.156,13.755c-0.191-1.406-1.33-2.488-3.42-3.25
				c-0.305-0.113-0.779-0.361-1.426-0.74c-0.455-0.305-0.836-0.457-1.139-0.457c-0.152,0-0.324,0.039-0.514,0.115
				c-0.039,0.646-0.057,1.33-0.057,2.051c0,0.988,0.076,2.66,0.227,5.016c0.115,2.166,0.152,3.857,0.115,5.074
				c0.266,0,0.664-0.199,1.197-0.6c0.531-0.398,0.834-0.617,0.912-0.654c1.139-0.531,2.146-1.426,3.02-2.68
				C283.947,16.376,284.307,15.085,284.156,13.755z"/>
			<path fill="#EEEACB" d="M312.371,38.664c0.229,0.607,0.342,1.141,0.342,1.596c0,0.762-0.324,1.426-0.969,1.996
				c-0.646,0.568-1.084,0.834-1.311,0.797c-1.863-0.342-3.041-1.842-3.535-4.502c-0.533-2.889-1.16-5.301-1.881-7.24
				c-1.293,0.115-2.584,0.229-3.875,0.342c-1.482,0.191-2.643,0.646-3.479,1.369c-0.418,1.178-0.969,3.268-1.652,6.27
				c-0.646,2.773-1.273,4.883-1.881,6.326c-0.305,0.686-0.951,0.875-1.938,0.57c-1.254-0.418-1.92-0.988-1.996-1.709
				c-0.113-1.445,0.305-3.383,1.254-5.814c1.141-2.773,1.768-4.75,1.881-5.928c0.039-0.342-0.209-0.721-0.74-1.141
				c-0.533-0.418-0.799-0.74-0.799-0.969c0-0.189,0.086-0.389,0.258-0.598c0.17-0.209,0.57-0.381,1.197-0.514
				s0.977-0.332,1.053-0.598c0.686-1.9,1.768-5.434,3.25-10.604c1.254-4.482,2.375-7.922,3.363-10.316
				c0.229-0.531,0.703-0.799,1.424-0.799c0.533,0,1.008,0.172,1.426,0.514c1.064,0.912,1.748,2.279,2.053,4.104
				c0.227,1.559,0.436,3.117,0.627,4.674C308.342,25.459,310.318,32.85,312.371,38.664z M304.049,27.777
				c-0.113-1.406-0.361-2.983-0.74-4.731c-0.381-1.52-0.742-3.041-1.084-4.561c-1.141,3.154-2.129,6.309-2.963,9.461
				C299.867,27.834,301.465,27.777,304.049,27.777z"/>
			<path fill="#EEEACB" d="M337.621,41.799c0.115,0.152,0.172,0.322,0.172,0.514c0,0.873-0.912,1.539-2.736,1.994
				c-2.014-1.559-4.521-3.951-7.523-7.182c-3.344-3.609-5.834-6.117-7.467-7.523c-0.115,0.988-0.324,3.572-0.627,7.752
				c-0.191,3.154-0.533,5.662-1.027,7.523c-0.076,0-0.312,0.094-0.711,0.285c-0.4,0.189-0.732,0.246-0.998,0.172
				c-1.672-0.381-2.508-1.539-2.508-3.479c0-0.568,0.076-1.328,0.229-2.279c0.15-1.102,0.246-1.785,0.285-2.053
				c0.15-2.203,0.246-4.824,0.283-7.865v-6.213c0-5.168,0.285-9.52,0.855-13.053c0.379-2.355,2.604-3.439,6.67-3.25
				c2.051,0.078,3.838,1.104,5.357,3.078c1.406,1.824,2.109,3.801,2.109,5.928c0,1.787-0.666,3.572-1.996,5.359
				c-1.139,1.596-2.545,2.85-4.217,3.762c-0.684,0.381-1.027,0.797-1.027,1.254c0,0.494,0.4,1.082,1.197,1.768
				c0.607,0.494,1.217,0.988,1.824,1.48c0.037,0.039,2.129,1.939,6.27,5.701C334.658,37.828,336.52,39.938,337.621,41.799z
				 M325.596,16.207c0.113-0.686,0.15-1.293,0.113-1.824c-0.113-0.799-0.447-1.52-0.998-2.166s-1.434-0.969-2.65-0.969
				c-0.912,0-1.482,0.283-1.709,0.854c-0.191,0.951-0.285,2.033-0.285,3.25c0,0.494,0.057,1.766,0.17,3.818
				c0.076,1.559,0.076,2.832,0,3.818C323.391,20.632,325.176,18.373,325.596,16.207z"/>
		</g>
	</g>
	<g>
		<g>
			<path fill="#EEEACB" d="M370.938,0.619c-13.059,0-23.646,10.587-23.646,23.648c0,13.061,10.588,23.649,23.646,23.649
				c13.062,0,23.648-10.588,23.648-23.649C394.586,11.207,383.999,0.619,370.938,0.619z M370.938,43.975
				c-10.882,0-19.705-8.824-19.705-19.708c0-10.883,8.823-19.707,19.705-19.707c10.885,0,19.707,8.824,19.707,19.707
				C390.645,35.15,381.822,43.975,370.938,43.975z"/>
		</g>
		<path fill="#EEEACB" d="M377.507,7.845L364.369,21.64l0,0v19.049l13.138-13.795l0,0V7.845z M372.438,25.732
			c-0.769,0.77-2.017,0.77-2.786,0c-0.771-0.77-0.771-2.018-0.001-2.788s2.018-0.77,2.787,0S373.207,24.962,372.438,25.732z"/>
	</g>
</g>
</svg>
