<?xml version="1.0" encoding="utf-8"?>
<!-- Generator: Adobe Illustrator 16.0.4, SVG Export Plug-In . SVG Version: 6.00 Build 0)  -->
<!DOCTYPE svg PUBLIC "-//W3C//DTD SVG 1.1//EN" "http://www.w3.org/Graphics/SVG/1.1/DTD/svg11.dtd">
<svg version="1.1" id="Layer_1" xmlns="http://www.w3.org/2000/svg" xmlns:xlink="http://www.w3.org/1999/xlink" x="0px" y="0px"
	 width="242px" height="120px" viewBox="0 0 242 120" enable-background="new 0 0 242 120" xml:space="preserve">
<g>
	<g>
		<g>
			<path fill="#FFFFFF" d="M12.498,15.28c0.131,4.554-0.063,10.991-0.585,19.313c-0.521,9.039-0.778,15.477-0.778,19.314
				c0,2.666,0.063,5.17,0.193,7.51c0.131,1.625-0.454,2.439-1.754,2.439c-3.968,0-6.146-0.879-6.536-2.633
				c-0.846-3.77-1.269-8.031-1.269-12.777c0-3.318,0.293-8.342,0.879-15.072c0.585-6.73,0.877-11.721,0.877-14.973
				c0-4.16-0.325-7.933-0.976-11.314C2.484,6.633,2.662,6.111,3.086,5.526C3.508,4.941,3.979,4.552,4.5,4.356
				c2.667-0.91,4.635-0.455,5.902,1.365C11.67,7.543,12.368,10.73,12.498,15.28z"/>
			<path fill="#FFFFFF" d="M48.297,28.547c0.195,1.301,0.292,2.602,0.292,3.901c0,7.284-2.503,13.788-7.511,19.507
				c-4.033,4.619-7.998,6.795-11.899,6.539c-3.057-0.197-5.626-1.561-7.706-4.098c-2.926-3.643-4.389-8.391-4.389-14.242
				c0-5.527,1.201-11.412,3.608-17.655c1.561-3.966,3.25-6.697,5.071-8.193c2.731-2.21,5.819-3.316,9.268-3.316
				c2.404,0,4.422,0.683,6.047,2.049c2.016,1.755,3.543,3.544,4.585,5.364c0.91,1.561,1.512,3.219,1.805,4.975
				C47.76,25.133,48.036,26.856,48.297,28.547z M40.199,27.62c-0.389-1.592-0.715-3.17-0.974-4.73
				c-0.456-1.756-1.302-3.024-2.535-3.805c-0.913-0.52-1.595-0.78-2.049-0.78c-0.521,0-1.14,0.358-1.855,1.072
				c-4.941,5.139-7.413,11.608-7.413,19.412c0,4.617,1.106,8.617,3.317,11.998c0.326,0.52,0.715,0.779,1.171,0.779
				c0.586,0,1.722-0.91,3.413-2.73c5.007-5.396,7.512-10.859,7.512-16.388C40.786,30.824,40.591,29.214,40.199,27.62z"/>
			<path fill="#FFFFFF" d="M79.803,28.547c0.195,1.301,0.293,2.602,0.293,3.901c0,7.284-2.504,13.788-7.511,19.507
				c-4.032,4.619-8,6.795-11.9,6.539c-3.058-0.197-5.625-1.561-7.706-4.098c-2.926-3.643-4.39-8.391-4.39-14.242
				c0-5.527,1.203-11.412,3.609-17.655c1.562-3.966,3.253-6.697,5.072-8.193c2.732-2.21,5.819-3.316,9.267-3.316
				c2.405,0,4.422,0.683,6.048,2.049c2.014,1.755,3.545,3.544,4.584,5.364c0.909,1.561,1.513,3.219,1.805,4.975
				C79.267,25.133,79.542,26.856,79.803,28.547z M71.708,27.62c-0.392-1.592-0.717-3.17-0.977-4.73
				c-0.456-1.756-1.302-3.024-2.536-3.805c-0.911-0.52-1.595-0.78-2.049-0.78c-0.521,0-1.137,0.358-1.852,1.072
				c-4.943,5.139-7.414,11.608-7.414,19.412c0,4.617,1.105,8.617,3.316,11.998c0.324,0.52,0.715,0.779,1.169,0.779
				c0.587,0,1.724-0.91,3.416-2.73c5.007-5.396,7.511-10.859,7.511-16.388C72.293,30.824,72.098,29.214,71.708,27.62z"/>
			<path fill="#FFFFFF" d="M155.203,60.346c0.26,1.299-0.683,2.016-2.828,2.145c-1.431,0.064-2.895-0.551-4.389-1.852
				c-1.236-1.107-2.213-2.895-2.928-5.365c-0.65-2.275-1.039-5.494-1.17-9.658c-0.13-4.68-0.357-7.899-0.682-9.656
				c-0.846,2.928-2.244,7.283-4.194,13.072c-1.172,3.186-1.889,5.008-2.146,5.461c-1.042,2.018-2.343,2.928-3.901,2.73
				c-3.122-0.713-5.528-2.469-7.219-5.268c-1.105-1.816-2.146-4.711-3.121-8.68c-1.041-4.354-1.919-7.283-2.634-8.779
				c-2.798,13.594-5.789,23.736-8.975,30.436c-0.454,0.973-1.821,0.908-4.098-0.195c-1.885-0.912-2.827-2.211-2.827-3.902
				c0-0.586,0.682-2.666,2.049-6.244c0.585-1.561,2.861-9.07,6.828-22.531c1.363-4.682,2.794-12.907,4.292-24.679
				c0.128-0.129,0.454-0.812,0.976-2.049c0.324-0.91,0.909-1.365,1.755-1.365c2.209,0,3.738,0.424,4.584,1.269
				c0,1.887,0.31,4.926,0.928,9.119c0.616,4.195,0.926,7.365,0.926,9.511c0.585,3.644,1.136,7.315,1.657,11.022
				c0.716,4.162,2.016,7.576,3.902,10.242c6.242-17.362,10.209-31.082,11.9-41.163c0.259-1.039,1.235-1.561,2.927-1.561
				c2.404,0,3.771,0.78,4.096,2.341c0.454,2.342,0.684,5.04,0.684,8.097c0,0.975-0.065,3.121-0.195,6.438
				c-0.065,2.667-0.065,4.845,0,6.535C151.984,39.535,153.254,51.047,155.203,60.346z"/>
			<path fill="#FFFFFF" d="M171.102,9.331c0.131,1.887,0.196,3.837,0.196,5.853c0,4.423-0.456,11.088-1.365,19.996
				c-0.913,8.91-1.367,15.641-1.367,20.191c0,1.691,0.033,3.348,0.099,4.975c-0.585,1.82-1.854,2.697-3.806,2.633
				c-2.796-0.129-4.325-1.334-4.582-3.609c-0.261-2.273-0.392-4.682-0.392-7.217c0-4.422,0.537-11.021,1.609-19.802
				c1.073-8.778,1.609-15.347,1.609-19.703c0-1.69-0.064-3.349-0.193-4.975c0.648-1.234,1.755-1.854,3.315-1.854
				c1.233,0,2.47,0.358,3.707,1.073c0.259-0.195,0.454-0.293,0.585-0.293c0.195,0,0.292,0.326,0.292,0.976
				c-0.065,0.78-0.065,1.236,0,1.366C170.875,9.136,170.972,9.267,171.102,9.331z"/>
			<path fill="#FFFFFF" d="M204.754,47.396c-0.132,0.066-3.936,2.777-11.412,8.135c-4.358,3.137-8.227,5.455-11.607,6.959
				c-0.39,0.195-0.779,0.295-1.17,0.295c-0.913,0-1.755-0.588-2.537-1.76c-1.17-1.562-1.788-2.377-1.852-2.441
				c-0.132-5.73,0.226-13.711,1.073-23.937c0.974-10.876,1.462-18.726,1.462-23.544c0-3.321-0.132-6.447-0.39-9.38
				c0.843-0.845,1.915-1.269,3.219-1.269c2.47,0,3.9,0.91,4.292,2.73c0.193,5.333-0.033,13.315-0.684,23.947
				c-0.65,10.631-0.911,18.615-0.78,23.947c1.819-0.781,4.194-2.146,7.12-4.098c3.186-2.209,5.495-3.674,6.926-4.389
				c0.326,0,0.894-0.064,1.706-0.197c0.813-0.129,1.415-0.193,1.805-0.193c1.301,0,2.245,0.521,2.829,1.568
				C205.535,45.209,205.535,46.418,204.754,47.396z"/>
			<path fill="#FFFFFF" d="M241.04,9.916c-2.406,0.976-5.95,2.114-10.632,3.414c-4.683,1.301-8.229,2.438-10.634,3.414
				c-0.585,1.691-1.007,5.463-1.269,11.314c1.04,0.391,2.245,0.586,3.61,0.586c0.976,0,2.503-0.162,4.586-0.488
				c2.078-0.324,3.607-0.487,4.582-0.487c1.821,0,3.382,0.39,4.683,1.171c0.909,1.301,1.367,2.146,1.367,2.535
				c0,0.455-0.23,0.814-0.684,1.073c-0.132,0.065-0.587,0.521-1.365,1.365c-0.521,0.586-1.17,0.847-1.952,0.78
				c-1.365,0.327-3.869,0.521-7.511,0.586c-3.058,0.065-5.494,0.455-7.316,1.171c-1.234,4.813-1.852,8.616-1.852,11.413
				c0,1.887,0.258,3.381,0.779,4.486c3.057,2.146,8.355,3.057,15.899,2.73c0.521,0,1.073-0.244,1.657-0.732
				c0.587-0.486,1.073-0.73,1.465-0.73c1.819-0.391,3.024,0.975,3.609,4.098c0.193,1.041,0.015,1.998-0.538,2.877
				c-0.552,0.877-1.351,1.35-2.39,1.414c-7.868,0.26-14.696-0.357-20.482-1.854c-1.821-0.457-3.479-1.463-4.977-3.023
				c-1.495-1.561-2.34-3.316-2.535-5.268c-0.585-5.658-0.585-10.729,0-15.217c-1.821-1.234-2.634-2.438-2.438-3.609
				c0.062-0.585,0.567-1.121,1.51-1.609c0.943-0.487,1.479-0.99,1.611-1.512c0.129-0.52,0.39-3.608,0.779-9.267
				c-3.642-0.714-5.43-2.08-5.365-4.097c0.063-1.885,1.203-3.38,3.414-4.487c2.081-0.844,4.162-1.689,6.244-2.536
				c2.47-1.233,5.526-2.34,9.17-3.316c3.12-0.844,6.273-1.657,9.46-2.438c0.326-0.064,0.716-0.098,1.172-0.098
				c1.755,0,3.804,0.683,6.143,2.049c0.065,0.261,0.228,0.747,0.488,1.463s0.392,1.235,0.392,1.56
				C241.723,9.169,241.493,9.591,241.04,9.916z"/>
			<path fill="#FFFFFF" d="M23.704,111.963c0.114,0.152,0.172,0.322,0.172,0.514c0,0.873-0.912,1.539-2.736,1.996
				c-2.015-1.559-4.522-3.953-7.524-7.184c-3.344-3.609-5.834-6.117-7.467-7.523c-0.113,0.988-0.323,3.572-0.627,7.752
				c-0.19,3.154-0.533,5.662-1.025,7.523c-0.077,0-0.314,0.096-0.713,0.285s-0.732,0.248-0.998,0.172
				c-1.672-0.381-2.508-1.539-2.508-3.477c0-0.57,0.076-1.33,0.229-2.281c0.15-1.102,0.246-1.785,0.285-2.051
				c0.15-2.205,0.246-4.826,0.285-7.867v-6.213c0-5.168,0.284-9.52,0.854-13.053c0.38-2.357,2.603-3.439,6.669-3.25
				c2.052,0.076,3.838,1.104,5.357,3.078c1.405,1.824,2.109,3.801,2.109,5.928c0,1.787-0.665,3.572-1.994,5.357
				c-1.141,1.598-2.547,2.852-4.219,3.764c-0.684,0.379-1.025,0.797-1.025,1.254c0,0.494,0.398,1.082,1.196,1.768
				c0.607,0.494,1.216,0.988,1.824,1.48c0.037,0.039,2.128,1.939,6.27,5.701C20.741,107.994,22.603,110.102,23.704,111.963z
				 M11.678,86.369c0.113-0.684,0.151-1.291,0.113-1.824c-0.113-0.797-0.447-1.52-0.997-2.166c-0.552-0.645-1.435-0.969-2.65-0.969
				c-0.912,0-1.481,0.285-1.71,0.855c-0.19,0.951-0.285,2.033-0.285,3.25c0,0.494,0.057,1.766,0.171,3.818
				c0.075,1.559,0.075,2.83,0,3.818C9.473,90.797,11.259,88.535,11.678,86.369z"/>
			<path fill="#FFFFFF" d="M40.349,83.064c-1.406,0.568-3.478,1.234-6.213,1.994c-2.736,0.76-4.809,1.426-6.214,1.996
				c-0.342,0.988-0.589,3.191-0.741,6.611c0.607,0.229,1.312,0.342,2.109,0.342c0.57,0,1.463-0.094,2.68-0.285
				c1.215-0.189,2.108-0.285,2.678-0.285c1.064,0,1.977,0.229,2.736,0.684c0.531,0.762,0.799,1.254,0.799,1.482
				c0,0.266-0.135,0.477-0.399,0.627c-0.077,0.039-0.343,0.305-0.798,0.799c-0.305,0.342-0.684,0.494-1.141,0.455
				c-0.798,0.191-2.261,0.305-4.389,0.342c-1.787,0.039-3.211,0.268-4.275,0.686c-0.722,2.812-1.082,5.035-1.082,6.67
				c0,1.102,0.15,1.975,0.455,2.621c1.786,1.254,4.883,1.787,9.291,1.596c0.305,0,0.627-0.143,0.969-0.428
				c0.343-0.285,0.627-0.428,0.855-0.428c1.063-0.227,1.768,0.57,2.109,2.395c0.113,0.609,0.009,1.168-0.314,1.682
				c-0.322,0.514-0.789,0.789-1.396,0.826c-4.598,0.152-8.588-0.209-11.969-1.082c-1.064-0.268-2.033-0.855-2.908-1.768
				c-0.874-0.912-1.367-1.938-1.481-3.078c-0.342-3.307-0.342-6.27,0-8.893c-1.064-0.723-1.539-1.426-1.425-2.109
				c0.037-0.342,0.332-0.656,0.883-0.939c0.551-0.285,0.864-0.58,0.941-0.885c0.075-0.303,0.228-2.109,0.455-5.414
				c-2.128-0.418-3.173-1.217-3.135-2.395c0.037-1.102,0.703-1.975,1.995-2.623c1.216-0.492,2.432-0.986,3.648-1.48
				c1.443-0.723,3.229-1.369,5.358-1.939c1.823-0.492,3.666-0.969,5.528-1.424c0.19-0.037,0.418-0.057,0.685-0.057
				c1.025,0,2.223,0.398,3.59,1.197c0.038,0.152,0.133,0.436,0.285,0.854c0.152,0.42,0.229,0.723,0.229,0.912
				C40.747,82.627,40.613,82.873,40.349,83.064z"/>
			<path fill="#FFFFFF" d="M53.8,77.078c0,0.762-0.551,1.426-1.652,1.996c-0.305,0.152-0.627,0.17-0.97,0.057
				c-0.532-0.152-0.817-0.229-0.854-0.229c-0.229,0-0.457,0.115-0.685,0.342c-2.052,2.053-3.077,4.561-3.077,7.525
				c0,1.102,0.17,2.127,0.512,3.078c0.152,0.418,1.597,3.361,4.332,8.834c1.824,3.648,2.736,6.746,2.736,9.293
				c0,2.09-0.513,4.104-1.539,6.041c-0.342,0.646-1.197,1.482-2.564,2.508c-1.104,0.799-2.09,1.197-2.965,1.197
				c-0.342,0-0.664-0.057-0.969-0.172c-1.14-0.494-1.709-1.121-1.709-1.881c0-0.455,0.284-1.006,0.854-1.652
				c0.151-0.191,0.513-0.305,1.083-0.342c0.57-0.039,0.949-0.266,1.14-0.684c0.798-1.672,1.197-3.383,1.197-5.131
				c0-2.469-1.226-6.051-3.677-10.746c-2.451-4.691-3.676-8.443-3.676-11.256c0-2.318,0.455-4.391,1.367-6.213
				c1.026-2.09,2.488-3.592,4.389-4.504c0.875-0.418,1.729-0.627,2.565-0.627c1.597,0,2.793,0.438,3.591,1.311
				C53.609,76.244,53.8,76.66,53.8,77.078z"/>
			<path fill="#FFFFFF" d="M86.118,76.053c-0.342,1.367-0.988,2.166-1.938,2.395c-2.471,0.607-6.765,1.406-12.883,2.393
				c-0.76,9.463-1.14,17.35-1.14,23.656c0,2.395,0.038,4.752,0.114,7.068c0.037,0.721,0,1.273-0.114,1.652
				c-0.19,0.607-0.569,0.893-1.14,0.855c-1.103-0.037-2.015-0.504-2.736-1.396c-0.723-0.893-1.121-1.889-1.197-2.992
				c-0.076-1.406-0.113-2.887-0.113-4.445c0-2.51,0.171-6.479,0.513-11.914c0.343-5.207,0.493-9.178,0.456-11.914
				c-1.025-0.074-2.451,0.02-4.275,0.285c-2.09,0.305-3.533,0.457-4.332,0.457c-1.861,0-3.381-0.498-4.56-1.494
				c-0.456-0.996-0.685-1.514-0.685-1.553c0-0.268,0.135-0.555,0.399-0.861c1.217-0.422,3.705-0.805,7.468-1.15
				c3.305-0.344,5.775-0.957,7.409-1.84c1.33,0.457,2.851,0.686,4.56,0.686c1.711,0,3.344-0.209,4.902-0.627
				c0.456-0.039,1.615-0.305,3.477-0.799c1.369-0.342,2.509-0.455,3.421-0.342c0.684,0,0.969,0.285,0.854,0.855
				C85.605,75.027,86.118,75.369,86.118,76.053z"/>
			<path fill="#FFFFFF" d="M97.86,99.252c-2.242,5.055-5.415,8.057-9.52,9.006c-0.494,0.115-0.988,0.172-1.481,0.172
				c-2.166,0-4.352-1.178-6.556-3.533c-1.481-1.598-2.223-3.668-2.223-6.215c0-2.812,0.836-5.832,2.508-9.062
				c0.722-1.369,1.596-2.545,2.623-3.535c1.177-1.176,2.298-1.766,3.362-1.766c0.607,0,1.177,0.227,1.71,0.684
				c0.531,0.455,1.957,1.064,4.275,1.824c1.824,0.607,3.115,1.635,3.875,3.078c1.33,2.545,1.996,4.73,1.996,6.555
				C98.431,97.484,98.239,98.416,97.86,99.252z M93.3,95.717c-0.266-2.773-1.007-4.426-2.223-4.959
				c-0.19-0.074-0.361-0.113-0.513-0.113c-0.456,0-1.026,0.381-1.71,1.141c-0.761,0.875-1.35,1.387-1.768,1.539
				c-0.266,0.113-0.646,0-1.14-0.342c-0.494-0.342-0.817-0.514-0.969-0.514c-0.114,0-0.21,0.039-0.285,0.113
				c-1.331,1.141-1.995,2.908-1.995,5.301c0,1.635,0.379,3.021,1.141,4.162c1.062,1.559,1.956,2.338,2.678,2.338
				c1.672,0,3.287-1.045,4.846-3.135C92.845,99.271,93.489,97.428,93.3,95.717z"/>
			<path fill="#FFFFFF" d="M134.226,86.77c-0.494,2.051-1.748,3.914-3.762,5.586c-1.938,1.367-3.876,2.717-5.814,4.047
				c0.114,0.57,0.503,0.996,1.169,1.281c0.664,0.285,1.301,0.562,1.909,0.828c3.153,2.051,4.73,4.484,4.73,7.297
				c0,2.166-0.74,4.16-2.223,5.984c-1.14,1.404-2.831,2.793-5.073,4.16c-1.823,1.064-3.647,2.129-5.472,3.193
				c-0.456,0.264-0.95,0.398-1.482,0.398c-1.254,0-2.128-0.514-2.621-1.539c0.075-3.191,0.15-6.365,0.228-9.52
				c0.075-3.799,0.285-6.934,0.627-9.404c-0.798-0.533-1.196-1.141-1.196-1.826c0-0.342,0.143-0.654,0.427-0.939
				c0.285-0.285,0.675-0.6,1.169-0.941c0.455-5.775,0.551-11.094,0.285-15.959c-1.787-0.342-2.965-1.141-3.535-2.395
				c-0.037-0.15,0.029-0.379,0.2-0.684s0.257-0.551,0.257-0.74c0.873-0.646,1.842-0.971,2.906-0.971c0.76,0,2.508,0.248,5.244,0.742
				c1.405,0.229,2.869,0.74,4.39,1.539c4.104,2.129,6.517,4.199,7.238,6.213C134.32,84.564,134.453,85.781,134.226,86.77z
				 M127.157,106.264c0.076-0.418,0.114-0.816,0.114-1.197c0-1.141-0.361-2.146-1.083-3.021c-1.938-0.949-3.173-1.424-3.705-1.424
				c-0.305,0-0.59,0.057-0.854,0.17c0.037,0.381,0.057,0.799,0.057,1.254c0,0.799-0.105,2.023-0.313,3.678
				c-0.209,1.652-0.313,2.898-0.313,3.732c0,1.217,0.151,2.318,0.456,3.307c0.456-0.533,1.168-1.094,2.138-1.682
				c0.969-0.588,1.643-1.111,2.023-1.566C126.359,108.715,126.853,107.631,127.157,106.264z M128.867,83.918
				c-0.19-1.404-1.33-2.488-3.42-3.248c-0.305-0.113-0.779-0.361-1.425-0.74c-0.456-0.305-0.836-0.457-1.14-0.457
				c-0.152,0-0.323,0.039-0.514,0.113c-0.038,0.646-0.057,1.332-0.057,2.053c0,0.988,0.076,2.66,0.228,5.016
				c0.114,2.166,0.151,3.857,0.114,5.074c0.266,0,0.665-0.201,1.197-0.6c0.531-0.398,0.835-0.617,0.912-0.654
				c1.14-0.533,2.146-1.426,3.021-2.68S129.019,85.25,128.867,83.918z"/>
			<path fill="#FFFFFF" d="M157.082,108.828c0.229,0.609,0.342,1.141,0.342,1.596c0,0.762-0.323,1.426-0.969,1.996
				c-0.646,0.57-1.083,0.836-1.311,0.797c-1.862-0.342-3.041-1.842-3.534-4.502c-0.533-2.887-1.16-5.301-1.881-7.24
				c-1.293,0.115-2.585,0.229-3.876,0.342c-1.482,0.191-2.642,0.646-3.478,1.369c-0.418,1.178-0.969,3.27-1.652,6.27
				c-0.647,2.773-1.274,4.883-1.882,6.328c-0.305,0.684-0.95,0.873-1.938,0.57c-1.254-0.42-1.919-0.99-1.995-1.711
				c-0.114-1.445,0.304-3.381,1.254-5.814c1.14-2.773,1.768-4.75,1.881-5.928c0.038-0.342-0.209-0.721-0.741-1.141
				c-0.532-0.418-0.798-0.74-0.798-0.969c0-0.189,0.086-0.389,0.257-0.598s0.57-0.381,1.197-0.514s0.978-0.332,1.054-0.598
				c0.685-1.9,1.768-5.436,3.249-10.604c1.255-4.482,2.375-7.922,3.363-10.316c0.229-0.531,0.703-0.799,1.425-0.799
				c0.532,0,1.007,0.172,1.426,0.514c1.063,0.912,1.747,2.279,2.052,4.104c0.228,1.559,0.437,3.117,0.627,4.674
				C153.054,95.623,155.03,103.014,157.082,108.828z M148.76,97.941c-0.113-1.406-0.361-2.982-0.74-4.732
				c-0.381-1.52-0.741-3.039-1.083-4.559c-1.141,3.154-2.129,6.309-2.964,9.461C144.579,97.998,146.176,97.941,148.76,97.941z"/>
			<path fill="#FFFFFF" d="M182.333,111.963c0.114,0.152,0.172,0.322,0.172,0.514c0,0.873-0.912,1.539-2.736,1.996
				c-2.015-1.559-4.522-3.953-7.524-7.184c-3.344-3.609-5.833-6.117-7.467-7.523c-0.114,0.988-0.323,3.572-0.627,7.752
				c-0.19,3.154-0.532,5.662-1.026,7.523c-0.076,0-0.313,0.096-0.712,0.285c-0.399,0.189-0.732,0.248-0.998,0.172
				c-1.672-0.381-2.508-1.539-2.508-3.477c0-0.57,0.076-1.33,0.229-2.281c0.151-1.102,0.246-1.785,0.285-2.051
				c0.151-2.205,0.246-4.826,0.284-7.867v-6.213c0-5.168,0.285-9.52,0.855-13.053c0.379-2.357,2.603-3.439,6.669-3.25
				c2.052,0.076,3.838,1.104,5.358,3.078c1.405,1.824,2.108,3.801,2.108,5.928c0,1.787-0.665,3.572-1.995,5.357
				c-1.14,1.598-2.546,2.852-4.218,3.764c-0.684,0.379-1.026,0.797-1.026,1.254c0,0.494,0.399,1.082,1.197,1.768
				c0.607,0.494,1.216,0.988,1.824,1.48c0.037,0.039,2.128,1.939,6.27,5.701C179.369,107.994,181.23,110.102,182.333,111.963z
				 M170.307,86.369c0.114-0.684,0.151-1.291,0.114-1.824c-0.114-0.797-0.447-1.52-0.998-2.166c-0.551-0.645-1.435-0.969-2.65-0.969
				c-0.912,0-1.482,0.285-1.71,0.855c-0.19,0.951-0.285,2.033-0.285,3.25c0,0.494,0.057,1.766,0.171,3.818
				c0.076,1.559,0.076,2.83,0,3.818C168.103,90.797,169.888,88.535,170.307,86.369z"/>
		</g>
	</g>
	<g>
		<g>
			<path fill="#FFFFFF" d="M216.6,71.441c-12.77,0-23.122,10.352-23.122,23.123s10.353,23.123,23.122,23.123
				c12.772,0,23.123-10.352,23.123-23.123S229.372,71.441,216.6,71.441z M216.6,113.834c-10.64,0-19.268-8.627-19.268-19.27
				s8.628-19.27,19.268-19.27c10.643,0,19.27,8.627,19.27,19.27S227.242,113.834,216.6,113.834z"/>
		</g>
		<path fill="#FFFFFF" d="M223.023,78.508l-12.846,13.488l0,0v18.625l12.846-13.486l0,0V78.508z M218.065,95.996
			c-0.75,0.754-1.971,0.754-2.723,0c-0.754-0.752-0.754-1.973-0.001-2.725c0.751-0.752,1.972-0.752,2.724,0
			C218.818,94.023,218.818,95.244,218.065,95.996z"/>
	</g>
</g>
</svg>
